<?xml version="1.0" encoding="utf-8"?>
<!-- Generator: Adobe Illustrator 22.1.0, SVG Export Plug-In . SVG Version: 6.00 Build 0)  -->
<svg version="1.1" id="Calque_1" xmlns="http://www.w3.org/2000/svg" xmlns:xlink="http://www.w3.org/1999/xlink" x="0px" y="0px"
	 viewBox="0 0 121.1 56" style="enable-background:new 0 0 121.1 56;" xml:space="preserve">
<style type="text/css">
	.st0{fill:#162A3A;}
	.st1{font-family:'ArialMT';}
	.st2{font-size:12px;}
	.st3{opacity:0.8;fill:#162A3A;enable-background:new    ;}
	.st4{font-family:'Avenir-Roman';}
	.st5{font-size:7.0044px;}
</style>
<title>Page 1</title>
<g>
	<path class="st0" d="M59,8.4c0,0.1,0,0.2,0,0.2c0,4.6,0,9.1-0.1,13.7c0,1.6-0.3,3.1-1.4,4.5c-0.1,0.1,0,0.3,0,0.5
		c0.2,0,0.4,0,0.5-0.1c0.4-0.6,0.7-1.3,1-2c0.6-1.7,0.6-3.4,0.7-5.2c0-3.6,0-7.2,0-10.8c0-0.2,0-0.4,0-0.6c0-0.3,0.1-0.4,0.4-0.4
		c0.6,0,1.2,0,1.9,0c0.4,0,0.6-0.1,0.5-0.5c0-0.8,0-1.7,0-2.5c0-0.3,0.1-0.6,0.3-0.8c0.3-0.4,0.3-0.7-0.1-1.1
		c-0.3-0.3-0.8-0.3-1.1,0s-0.3,0.7,0,1c0.2,0.2,0.3,0.5,0.3,0.8c0,0.7,0,1.4,0,2c0,0.4-0.1,0.5-0.5,0.5c-1.3,0-2.7,0-4,0
		c-0.1,0-0.3-0.2-0.3-0.2c0-0.3-0.1-0.7,0.3-1c0.1-0.1,0.2-0.3,0.2-0.4c0-0.4-0.1-0.7-0.5-0.8c-0.3-0.1-0.7-0.1-0.9,0.2
		C56,5.7,56,6.1,56.3,6.5c0,0.2,0.1,0.4,0.1,0.6s0,0.4,0,0.6c0,0.5,0.1,0.7,0.5,0.7C57.7,8.4,58.3,8.4,59,8.4 M62,17.8L62,17.8
		c0.1-0.6,0.1-1.2,0.1-1.7c0-1,0-2,0-2.9c0-0.2,0-0.5,0.4-0.5c0.9,0,1.8,0,2.7,0c0.2,0,0.3,0.1,0.3,0.3c0,0.4,0,0.8-0.3,1.2
		c-0.3,0.3-0.2,0.8,0.1,1.1c0.4,0.3,0.8,0.3,1.1,0c0.3-0.3,0.3-0.8,0-1.1c-0.4-0.3-0.3-0.7-0.3-1.1c0-0.3,0.2-0.4,0.5-0.4
		c0.4,0,0.8,0,1.2,0c0.2,0,0.4,0.1,0.6,0.2c0.4,0.3,0.9,0.2,1.2-0.1c0.2-0.3,0.2-0.7-0.1-1c-0.4-0.4-0.8-0.4-1.2-0.1
		c-0.1,0.1-0.2,0.2-0.3,0.3c-0.4,0.3-0.6,0.1-0.6-0.3c0-0.5,0-0.9,0-1.4c0-0.2,0.1-0.4,0.4-0.4c0.5,0,1,0,1.5,0
		c0.1,0,0.3,0.1,0.4,0.2c0.3,0.3,0.8,0.3,1.1,0.1c0.3-0.3,0.4-0.7,0.1-1.1c-0.3-0.4-0.8-0.4-1.2-0.1c-0.2,0.2-0.5,0.3-0.8,0.3
		c-0.5,0-1.1,0-1.6,0c-0.3,0-0.5,0.1-0.5,0.4c0,0.4,0,0.8,0,1.2c0,1.1,0.1,1.1-1.1,1.1c-0.4,0-0.6-0.1-0.5-0.5c0-1.2,0-2.3,0-3.4
		c0-0.3,0-0.6,0.3-0.9s0.2-0.8,0-1c-0.4-0.3-0.9-0.4-1.2,0c-0.3,0.3-0.2,0.7,0,1.1c0.1,0.2,0.3,0.5,0.3,0.7c0,1.2,0,2.4,0,3.5
		c0,0.5-0.1,0.6-0.6,0.6c-0.6,0-1.3,0-1.9,0c-0.3,0-0.5,0.1-0.5,0.5c0.1,3.2,0,6.6,0.2,9.8c0,1.2,0.4,2.4,0.7,3.4
		c0.1,0.5,0.5,1,0.9,1.5c0.1,0.1,0.3,0.1,0.5,0.1c0-0.1,0-0.3-0.1-0.4c-0.1-0.2-0.4-0.5-0.4-0.7c-0.3-1-0.7-2.1-0.8-3
		C62.1,21.4,62.1,19.5,62,17.8 M52.4,27.4c-0.2,0-0.4,0-0.6,0c-13.8,0-27.6,0-41.4-0.1c-0.9,0-1.8,0-2.7-0.1c-0.1,0-0.2,0-0.3-0.1
		c-0.1,0-0.1-0.1-0.1-0.2s0.1-0.1,0.2-0.1s0.3,0,0.4,0c5.5,0,11-0.1,16.5-0.1c9,0,18,0,26.9,0h0.5c-0.3-0.6-0.7-1-0.9-1.6
		c-0.6-1.2-1.2-2.4-1.7-3.5c-0.6-1.4-1.2-2.7-1.6-4.1c-0.9-2.5-1.2-5.2-0.5-7.8c0.6-2,1.8-3.5,3.6-4.7c0.7-0.4,1.4-0.8,2.2-1
		C55,3.3,57,2.5,59.1,1.9c1.9-0.6,3.8-1.2,5.7-1.6c1.9-0.4,3.7-0.4,5.4,0.7c1.1,0.7,1.8,1.7,2.3,2.8C72.9,4.9,73,6.1,73,7.1
		c0,2.5,0,4.8-0.3,7.3s-0.7,4.8-1.3,7.1c-0.5,1.8-1.1,3.6-2.1,5.4h44.8c-0.1,0.5-0.4,0.5-0.6,0.5c-1.2,0-2.5,0.1-3.7,0.1
		c-13.4,0-26.8,0-40.2,0.1H69c0-0.2,0.1-0.3,0.1-0.5c-0.2,0-0.3,0-0.5,0c-0.6,0-1.3,0-1.9,0c-0.9,0-1.4-0.3-1.7-1.2
		c-0.5-1.3-0.7-2.5-0.7-3.9c0-1.3,0.1-2.5,0.2-3.7c0-0.4,0.3-0.7,0.7-0.8c0.6-0.1,1.3-0.1,1.9-0.2c0.1,0,0.2,0.1,0.4,0.2
		c0.5,0.4,1.2,0.3,1.3-0.3c0.1-0.4-0.1-0.7-0.4-0.9c-0.3-0.2-0.6-0.1-0.9,0.1s-0.5,0.3-0.8,0.3c-0.6,0.1-1.1,0.1-1.7,0.2
		s-1,0.6-1.1,1.2c-0.4,2.5-0.3,4.8,0.3,7.3c0.2,0.8,0.5,1.5,1.3,2c0.3,0.2,0.7,0.3,1,0.3c0.7,0,1.5,0,2.3,0c-0.5,0.6-1,1.1-1.6,1.4
		c-1.4,0.9-2.9,1.3-4.6,1.5c-1.9,0.2-3.8,0.1-5.7-0.3C55.2,29.5,53.7,28.7,52.4,27.4c0.9,0,1.7,0,2.6,0c0.3,0,0.5-0.1,0.8-0.3
		c0.8-0.5,1.2-1.4,1.4-2.3c0.2-1,0.4-2,0.5-2.9c0.2-2,0.1-3.9-0.5-5.8c-0.4-1.1-1.1-1.8-2.3-1.9c-0.1,0-0.3-0.2-0.3-0.3
		c0-0.4,0-0.9,0-1.3c0-0.3,0.1-0.4,0.4-0.4c0.7,0,1.3,0,2,0c0.4,0,0.5-0.2,0.5-0.5c0-0.5-0.1-0.9,0.4-1.3c0.3-0.2,0.1-0.7-0.2-0.9
		c-0.4-0.3-0.8-0.3-1.1,0c-0.3,0.2-0.3,0.6,0,0.9c0.1,0.1,0.2,0.2,0.2,0.2c0.1,0.3,0.1,0.6,0.1,0.8c0,0.1-0.4,0.2-0.6,0.2
		c-0.4,0-0.8,0-1.2,0s-0.5-0.1-0.5-0.5c0-0.9,0-1.8,0-2.6c0-0.4,0-0.7,0.3-1s0.2-0.8-0.2-1.1c-0.3-0.3-0.9-0.2-1.1,0.1
		c-0.2,0.4-0.2,0.9,0.1,1.2c0.1,0.1,0.2,0.3,0.2,0.5c0,1,0,2.1,0,3c0,0.4-0.2,0.5-0.5,0.5h-1.7c-0.8,0-1.1-0.4-0.8-1.2
		c0.1-0.1,0.2-0.2,0.3-0.4C51.5,9.7,51.4,9.3,51,9c-0.3-0.3-0.9-0.2-1.1,0.1c-0.2,0.3-0.2,0.7,0.1,1c0.1,0.2,0.2,0.4,0.3,0.6
		c0,0.2,0,0.4,0,0.7c0,0.7,0,0.7,0.7,0.7h3c0,0.6,0,1.1,0,1.7c0,0.1-0.1,0.3-0.2,0.3c-0.6,0-1.2,0.2-1.7-0.3
		c-0.3-0.3-0.8-0.2-1.1,0.1s-0.3,0.7,0,1s0.8,0.5,1.1,0.2c0.3-0.4,0.7-0.3,1.2-0.3c0.6,0,1.1,0,1.7,0c0.7,0,1.2,0.3,1.5,0.9
		c0.3,0.6,0.5,1.2,0.6,1.9c0.4,2.3,0.3,4.4-0.2,6.7c-0.1,0.6-0.3,1.1-0.5,1.7c-0.3,0.8-0.9,1.3-1.8,1.2c-0.5,0-1.1,0-1.6,0
		c-0.2,0-0.3,0-0.5,0L52.4,27.4 M22.3,35.6c1.3,0,2.6,0,3.8,0c2.1,0,3,1.8,2.8,3.4c-0.1,0.4-0.4,0.9-0.9,1.1c-0.4,0.1-0.8,0-1.1-0.4
		c-0.1-0.1-0.2-0.3-0.2-0.5c0-0.1,0-0.1,0-0.2c-0.1-1.1-0.2-1.2-1.3-1.2c-2.3,0-4.7,0-7,0c-0.7,0-0.7,0-0.7,0.7c0,1-0.1,1,0.9,0.9
		c1.7,0,3.3,0.1,5,0.4c2.2,0.4,4.1,1.5,5.5,3.2c0.2,0.2,0.4,0.5,0.6,0.7c0.4,0.6,0,1.2-0.5,1.6c-0.4,0.4-1.1,0.2-1.5-0.3
		c-0.9-1.2-2-2.2-3.5-2.7c-1.2-0.5-2.5-0.7-3.8-0.7c-0.8,0-1.5,0-2.3,0c-0.3,0-0.4,0.1-0.4,0.4c0,0.8,0,1.5,0,2.3
		c0,0.5-0.4,1-0.8,1.2c-0.3,0.2-0.8,0.1-1.1-0.2c-0.2-0.3-0.4-0.6-0.4-0.9c0-2.1,0-4.1,0-6.3c0-1.1,0.7-1.7,1.5-2.3
		c0.4-0.3,0.9-0.4,1.5-0.4C19.7,35.6,21,35.6,22.3,35.6"/>
	<g transform="translate(131 43.57)">
		<path class="st0" d="M-21.4-2.6v0.5c0,1,0,1.9,0,2.8s-1,1.5-1.7,1.1c-0.4-0.2-0.6-0.5-0.6-0.9c0-2.5,0-5.2,0-7.7
			c0-0.7,0.7-1.3,1.4-1.3c0.5,0,0.9,0.4,0.9,0.9c0,0.1,0,0.1,0,0.2c0,1.6,0.9,2.4,2.5,2.4c0.9,0,1.8,0,2.7,0c1.3,0,2.5,0,3.7,0.5
			c0-0.2,0-0.3,0-0.5c0-0.7,0-1.4,0-2.1c0-0.5,0.1-0.9,0.5-1.2c0.5-0.2,0.9-0.3,1.4-0.1c0.4,0.2,0.6,0.5,0.6,1c0,2.5,0,5.1,0,7.6
			c0,0.6-0.4,0.9-0.8,1.2C-11.2,2-11.7,2-12,1.7c-0.2-0.2-0.3-0.6-0.4-0.9c-0.1-0.4,0-0.8-0.1-1.2c-0.1-1.2-1.1-1.7-2-1.7
			c-1-0.1-2.1,0-3.1-0.1c-0.6,0-1.3,0-1.9,0C-20.1-2.3-20.7-2.5-21.4-2.6"/>
	</g>
	<path class="st0" d="M85.3,37.9c-1.3,0-2.6,0-3.8,0c-0.8,0-1.2,0.3-1.5,1.1c-0.4,1-0.4,2,0,3c0.3,0.9,1,1.4,2,1.4c2.5,0,5,0,7.4,0
		c0.3,0,0.7,0.1,1,0.3c0.6,0.5,0.4,1.3-0.3,1.8c-0.2,0.2-0.5,0.3-0.8,0.3c-2.6,0-5.2,0-7.8,0c-1.7,0-3.2-1.2-3.8-2.7
		c-0.6-1.8-0.5-3.5,0.5-5.1c0.7-1.3,1.9-2.2,3.5-2.2c2.7,0,5.3,0,8,0c0.5,0,0.9,0.2,1.1,0.6c0.2,0.4,0,0.8-0.3,1.2s-0.7,0.6-1.2,0.6
		C87.9,37.8,86.6,37.9,85.3,37.9 M100.3,35.5c1.3,0,2.6,0,3.8,0c0.8,0,1.3,0.3,1.3,1c0,0.6-0.7,1.3-1.3,1.4c-1,0-1.9,0-2.9,0h-4.7
		c-1.3,0-1.5,0.2-1.9,1.3c-0.3,0.9-0.3,1.9,0.1,2.8s1.1,1.3,2,1.3c2.5,0,5,0,7.4,0c0.5,0,0.9,0.1,1.1,0.5c0.4,0.8-0.3,1.8-1.2,1.8
		c-0.6,0-1.3,0-1.9,0c-1.8,0-3.7,0-5.5,0c-2.6,0.1-4.1-1.5-4.5-3.8c-0.3-1.6,0-3,0.9-4.3c0.8-1.2,1.9-1.9,3.4-1.9
		C97.8,35.5,99,35.5,100.3,35.5 M39.1,35.6c1.4,0,2.7,0,4.1,0c0.4,0,0.7,0.1,0.9,0.5s0.1,0.7-0.1,1.1c-0.3,0.5-0.7,0.7-1.4,0.7
		c-2.4,0-4.8,0-7.3,0c-1.6,0-1.6,0.4-2,1.6c-0.3,0.9-0.2,1.8,0.2,2.6s1,1.2,1.9,1.2c2.5,0,5,0,7.5,0c0.8,0,1.2,0.3,1.2,0.9
		s-0.6,1.2-1.2,1.2c-2.7,0-5.4,0-8.1,0c-1.7,0-3.1-1.2-3.6-2.7s-0.4-2.8,0.1-4.3c0.5-1.4,2.4-2.9,4-2.8
		C36.7,35.7,37.9,35.6,39.1,35.6 M8,45.4c-1.2,0-2.4,0-3.7,0c-1.9,0-3.3-1.1-3.9-2.8C-0.2,40.7-0.1,39,1,37.3
		c0.7-1.1,1.8-1.9,3.2-1.9c2.7,0,5.4,0,8.1,0c0.4,0,0.7,0.1,0.8,0.4c0.2,0.4,0.1,0.8-0.1,1.2c-0.3,0.5-0.8,0.7-1.4,0.7
		c-2.4,0-4.9,0-7.3,0c-0.2,0-0.4,0-0.5,0c-0.6,0.1-0.9,0.4-1.1,0.9c-0.4,1.1-0.5,2.3,0,3.3c0.4,0.9,1.1,1.2,2,1.2c2.4,0,4.7,0,7.1,0
		c0.2,0,0.3,0,0.5,0c0.8,0,1.2,0.8,0.8,1.5c-0.3,0.5-0.7,0.8-1.3,0.7C10.6,45.4,9.3,45.4,8,45.4 M54.8,35.6c0.9,0,1.8,0,2.7,0
		c2.3,0,3.9,1.7,3.9,3.9c0,1.6,0,3,0,4.6c0,0.6-0.3,0.9-0.7,1.3c-0.3,0.3-0.7,0.3-1.1,0.1s-0.6-0.6-0.6-1c0-1.4,0-2.7,0-4.1
		c0-0.2,0-0.3,0-0.5c0-1.4-0.7-2.1-2.1-2.1s-2.7,0-4.1,0c-0.4,0-0.8,0-1.2,0c-1.1,0.1-1.5,0.7-1.5,1.7c0,1.5,0,2.9,0,4.5
		c0,0.6-0.3,1-0.6,1.3s-0.6,0.3-1,0.1c-0.5-0.2-0.6-0.6-0.7-1c0-1.3,0-2.5,0-3.7c0-0.7,0-1.3,0.1-2c0.2-1.4,1.2-2.1,2.3-2.7
		c0.7-0.4,1.4-0.5,2.2-0.5C53.3,35.6,54.1,35.6,54.8,35.6 M68.7,37.8h-4.9c-0.8,0-1.2-0.4-1.3-1c0-0.7,0.6-1.3,1.3-1.3
		c0.2,0,0.4,0,0.7,0h10.9c0.4,0,0.7,0,1,0.4c0.2,0.3,0.3,0.6,0.1,1c-0.3,0.5-0.6,0.9-1.3,1c-0.8,0-1.6,0-2.4,0
		c-1.8-0.1-2.3,0.7-2.3,2.3c0,1.3,0,2.6,0,3.9c0,0.6-0.3,1-0.8,1.4c-0.6,0.4-1.6,0-1.6-0.7c0-1.9,0-3.6,0.1-5.5
		C68.3,38.7,68.5,38.2,68.7,37.8"/>
	<path class="st0" d="M85.6,39.3c1.1,0,2.3,0,3.4,0c0.5,0,0.8,0.2,1,0.6c0.2,0.4,0.1,0.8-0.3,1.2c-0.3,0.4-0.7,0.5-1.2,0.5
		c-2.2,0-4.3,0-6.5,0c-0.8,0-1.2-0.4-1.2-1s0.6-1.3,1.3-1.3C83.3,39.3,84.4,39.3,85.6,39.3 M39,41.6c-1.1,0-2.3,0-3.4,0
		c-0.4,0-0.7-0.2-0.9-0.6c-0.2-0.4-0.2-0.8,0.1-1.1s0.7-0.6,1.1-0.6c2.3-0.1,4.6,0,6.9,0c0.6,0,0.9,0.4,0.9,0.9
		c0,0.7-0.6,1.3-1.3,1.3C41.3,41.7,40.1,41.6,39,41.6 M54.5,41.6c-0.9,0-1.8,0-2.7,0c-0.6,0-0.9-0.2-1-0.7c-0.2-0.5,0-0.8,0.4-1.2
		c0.3-0.3,0.7-0.4,1.1-0.4c1.8,0,3.5,0,5.3,0c0.8,0,1.2,0.7,0.9,1.4s-0.5,0.9-1.3,0.9H54.5"/>
</g>
<text transform="matrix(1 0 0 1 18.3332 50.5564)" class="st0 st1 st2"> </text>
<text transform="matrix(0.9994 0 0 1 27.4814 54.2696)" class="st3 st4 st5">Technology Praemisit</text>
</svg>
